<svg width="220" height="110" viewBox="0 0 220 110" fill="none" xmlns="http://www.w3.org/2000/svg">
<g filter="url(#filter0_d_143_318)">
<rect x="10" y="9" width="200" height="90" rx="5" fill="white"/>
</g>
<g clip-path="url(#clip0_143_318)">
<path d="M82.4694 50.9249C83.1321 49.7223 83.9253 48.8369 84.8516 48.2638C85.7804 47.6881 86.8705 47.3989 88.1191 47.3989C89.8105 47.3989 91.1103 47.9977 92.0212 49.1875C92.9398 50.3747 93.4004 52.0661 93.4004 54.2564V64.0896H90.7214V54.3408C90.7214 52.7825 90.445 51.626 89.8949 50.866C89.3473 50.1112 88.5106 49.7299 87.3848 49.7299C86.0056 49.7299 84.9156 50.1931 84.1172 51.1117C83.3164 52.0328 82.9172 53.2917 82.9172 54.8833V64.0896H80.2484V54.3408C80.2484 52.7723 79.9721 51.6106 79.4194 50.8583C78.8744 50.1086 78.0274 49.7299 76.8786 49.7299C75.5199 49.7299 74.4401 50.1956 73.6443 51.1219C72.8434 52.0482 72.4443 53.3045 72.4443 54.8833V64.0896H69.7652V47.7981H72.4443V50.3236C73.0507 49.3308 73.7774 48.5939 74.6217 48.1205C75.4712 47.642 76.482 47.3989 77.6462 47.3989C78.8155 47.3989 79.8134 47.7034 80.6374 48.3073C81.4638 48.906 82.0754 49.7786 82.4694 50.9249Z" fill="#0E72AE"/>
<path d="M109.845 54.8573V56.1622H97.6223C97.7349 58.0045 98.2825 59.4067 99.2701 60.3739C100.26 61.3411 101.637 61.8222 103.4 61.8222C104.423 61.8222 105.414 61.6993 106.373 61.4511C107.33 61.1953 108.282 60.8191 109.229 60.3151V62.8405C108.269 63.2474 107.289 63.5596 106.289 63.7719C105.286 63.9869 104.27 64.0943 103.239 64.0943C100.66 64.0943 98.6151 63.3395 97.108 61.8222C95.5983 60.3099 94.8435 58.263 94.8435 55.6863C94.8435 53.0201 95.5574 50.904 96.9877 49.338C98.4181 47.767 100.35 46.9814 102.783 46.9814C104.956 46.9814 106.678 47.6902 107.944 49.1001C109.211 50.5151 109.845 52.4316 109.845 54.8573ZM107.184 54.0666C107.166 52.6056 106.762 51.4388 105.966 50.5662C105.173 49.6912 104.119 49.2536 102.809 49.2536C101.325 49.2536 100.14 49.6784 99.2445 50.5253C98.3541 51.3671 97.8424 52.5544 97.7067 54.0845L107.184 54.0666Z" fill="#0E72AE"/>
<path d="M121.838 50.298C121.539 50.124 121.214 49.9986 120.858 49.9167C120.508 49.8323 120.119 49.7888 119.691 49.7888C118.19 49.7888 117.033 50.2826 116.23 51.2652C115.429 52.2477 115.029 53.6602 115.029 55.5025V64.0896H112.353V47.7981H115.029V50.3236C115.587 49.3359 116.314 48.6015 117.21 48.1205C118.105 47.642 119.195 47.3989 120.477 47.3989C120.659 47.3989 120.858 47.4143 121.078 47.4424C121.301 47.4655 121.552 47.5013 121.82 47.5525L121.838 50.298Z" fill="#0E72AE"/>
<path d="M134.931 48.0075V50.5074C134.182 50.0903 133.429 49.7782 132.669 49.5683C131.912 49.3585 131.15 49.2536 130.379 49.2536C128.657 49.2536 127.317 49.8037 126.36 50.9066C125.408 52.0094 124.932 53.5549 124.932 55.543C124.932 57.526 125.408 59.069 126.36 60.1692C127.317 61.272 128.657 61.8222 130.379 61.8222C131.15 61.8222 131.912 61.7198 132.669 61.51C133.429 61.3027 134.182 60.988 134.931 60.5684V63.0427C134.189 63.3958 133.419 63.6593 132.626 63.8308C131.833 64.0048 130.988 64.0943 130.093 64.0943C127.654 64.0943 125.717 63.3242 124.282 61.7812C122.846 60.2383 122.127 58.1606 122.127 55.543C122.127 52.8819 122.849 50.7914 124.297 49.2715C125.751 47.744 127.739 46.9814 130.269 46.9814C131.086 46.9814 131.884 47.0659 132.659 47.2373C133.442 47.4062 134.2 47.6646 134.931 48.0075Z" fill="#0E72AE"/>
<path d="M144.788 55.4842C142.641 55.4842 141.152 55.7324 140.318 56.2288C139.491 56.72 139.077 57.5644 139.077 58.7542C139.077 59.7035 139.386 60.4584 140.005 61.0187C140.632 61.574 141.477 61.8478 142.549 61.8478C144.023 61.8478 145.205 61.3232 146.095 60.2716C146.986 59.2199 147.431 57.8228 147.431 56.0778V55.4842H144.788ZM150.092 54.3737V63.6721H147.431V61.1953C146.822 62.1855 146.064 62.9173 145.159 63.3907C144.255 63.8589 143.15 64.0943 141.84 64.0943C140.184 64.0943 138.867 63.6286 137.887 62.6973C136.907 61.7608 136.415 60.5019 136.415 58.9257C136.415 57.0936 137.024 55.717 138.24 54.7882C139.46 53.8568 141.285 53.3885 143.705 53.3885H147.431V53.1276C147.431 51.8968 147.027 50.9449 146.223 50.2694C145.417 49.5914 144.289 49.2536 142.835 49.2536C141.912 49.2536 141.011 49.3688 140.133 49.5914C139.253 49.814 138.411 50.1466 137.608 50.5918V48.1175C138.58 47.7414 139.524 47.4574 140.438 47.2706C141.354 47.0787 142.247 46.9814 143.114 46.9814C145.45 46.9814 147.195 47.5955 148.352 48.8212C149.511 50.0417 150.092 51.8942 150.092 54.3737Z" fill="#0E72AE"/>
<path d="M158.116 42.752V47.3807H163.589V49.4559H158.116V58.3066C158.116 59.6346 158.298 60.4892 158.659 60.8653C159.017 61.244 159.751 61.4333 160.862 61.4333H163.589V63.6723H160.862C158.804 63.6723 157.387 63.2884 156.606 62.5183C155.829 61.7455 155.44 60.3408 155.44 58.3066V49.4559H153.487V47.3807H155.44V42.752H158.116Z" fill="#0E72AE"/>
<path d="M173.269 49.2536C171.844 49.2536 170.715 49.8165 169.884 50.9398C169.055 52.058 168.64 53.5932 168.64 55.543C168.64 57.4928 169.05 59.0255 169.874 60.1462C170.703 61.2644 171.834 61.8222 173.269 61.8222C174.681 61.8222 175.805 61.2618 176.631 60.136C177.463 59.0127 177.882 57.4825 177.882 55.543C177.882 53.6112 177.463 52.081 176.631 50.9475C175.805 49.8191 174.681 49.2536 173.269 49.2536ZM173.269 46.9814C175.577 46.9814 177.391 47.7414 178.709 49.2536C180.032 50.7684 180.695 52.864 180.695 55.543C180.695 58.2092 180.032 60.3048 178.709 61.8222C177.391 63.3395 175.577 64.0943 173.269 64.0943C170.943 64.0943 169.124 63.3395 167.806 61.8222C166.491 60.3048 165.836 58.2092 165.836 55.543C165.836 52.864 166.491 50.7684 167.806 49.2536C169.124 47.7414 170.943 46.9814 173.269 46.9814Z" fill="#0E72AE"/>
<path d="M193.483 50.298C193.184 50.124 192.859 49.9986 192.503 49.9167C192.153 49.8323 191.766 49.7888 191.339 49.7888C189.834 49.7888 188.68 50.2826 187.877 51.2652C187.076 52.2477 186.677 53.6602 186.677 55.5025V64.0896H183.998V47.7981H186.677V50.3236C187.235 49.3359 187.961 48.6015 188.854 48.1205C189.75 47.642 190.84 47.3989 192.124 47.3989C192.304 47.3989 192.503 47.4143 192.723 47.4424C192.948 47.4655 193.197 47.5013 193.468 47.5525L193.483 50.298Z" fill="#0E72AE"/>
<path d="M32.0775 71.7786H26.2538V42.4375H33.8916L41.2122 49.7146L48.4381 42.4375L52.9338 46.9665L41.2122 58.7674L32.6123 50.1137V71.7786H32.0775Z" fill="#0E72AE"/>
<path d="M58.7038 64.0896H52.8801V57.8949L41.2097 69.6421L33.8916 62.2755C33.8942 59.2715 33.8916 56.2266 33.8916 53.2201L41.335 60.7146L57.56 44.1288L59.2411 42.4375V64.0896H58.7038Z" fill="#26A8E2"/>
<path fill-rule="evenodd" clip-rule="evenodd" d="M58.7038 71.7786H52.8801V65.374H59.2411V71.7786H58.7038Z" fill="#FCB410"/>
<path fill-rule="evenodd" clip-rule="evenodd" d="M57.9566 41.9102L53.8396 46.0554L49.3413 41.529L53.8396 37L58.3353 41.529L57.9566 41.9102Z" fill="#FCB410"/>
</g>
<defs>
<filter id="filter0_d_143_318" x="0" y="0" width="220" height="110" filterUnits="userSpaceOnUse" color-interpolation-filters="sRGB">
<feFlood flood-opacity="0" result="BackgroundImageFix"/>
<feColorMatrix in="SourceAlpha" type="matrix" values="0 0 0 0 0 0 0 0 0 0 0 0 0 0 0 0 0 0 127 0" result="hardAlpha"/>
<feOffset dy="1"/>
<feGaussianBlur stdDeviation="5"/>
<feColorMatrix type="matrix" values="0 0 0 0 0 0 0 0 0 0 0 0 0 0 0 0 0 0 0.1 0"/>
<feBlend mode="normal" in2="BackgroundImageFix" result="effect1_dropShadow_143_318"/>
<feBlend mode="normal" in="SourceGraphic" in2="effect1_dropShadow_143_318" result="shape"/>
</filter>
<clipPath id="clip0_143_318">
<rect width="169" height="34.7171" fill="white" transform="translate(25 37)"/>
</clipPath>
</defs>
</svg>
