<svg width="18" height="16" viewBox="0 0 18 16" fill="none" xmlns="http://www.w3.org/2000/svg">
<path d="M1.50002 0.5H16.5C16.721 0.5 16.933 0.587797 17.0893 0.744078C17.2456 0.900358 17.3334 1.11232 17.3334 1.33333V14.6667C17.3334 14.8877 17.2456 15.0996 17.0893 15.2559C16.933 15.4122 16.721 15.5 16.5 15.5H1.50002C1.27901 15.5 1.06704 15.4122 0.910765 15.2559C0.754484 15.0996 0.666687 14.8877 0.666687 14.6667V1.33333C0.666687 1.11232 0.754484 0.900358 0.910765 0.744078C1.06704 0.587797 1.27901 0.5 1.50002 0.5ZM9.05002 7.73583L3.70669 3.19833L2.62752 4.46833L9.06085 9.93083L15.3784 4.46417L14.2884 3.20333L9.05085 7.73583H9.05002Z" fill="white"/>
</svg>
