<svg width="50" height="51" viewBox="0 0 50 51" fill="none" xmlns="http://www.w3.org/2000/svg">
<path fill-rule="evenodd" clip-rule="evenodd" d="M23.0189 1.09981C24.2186 0.300062 25.7814 0.300062 26.9811 1.09981L48.4097 15.3855C49.3 15.979 49.8772 16.9405 49.9825 18.0052C50.0879 19.07 49.7104 20.1259 48.954 20.8825L46.4286 23.4079V39.7871C48.5161 40.5796 50 42.5986 50 44.9643C50 48.0214 47.5215 50.5 44.4643 50.5H5.53569C2.47841 50.5 -2.35546e-05 48.0214 -2.35546e-05 44.9643C-2.35546e-05 42.5986 1.48376 40.5796 3.57141 39.7871V23.4079L1.04605 20.8825C0.289441 20.1259 -0.0880595 19.07 0.0173691 18.0052C0.122798 16.9405 0.700084 15.979 1.59033 15.3855L23.0189 1.09981ZM32.1429 21.9286C34.1154 21.9286 35.7143 23.5276 35.7143 25.5V36.2143C35.7143 38.1868 34.1154 39.7857 32.1429 39.7857C30.1704 39.7857 28.5714 38.1868 28.5714 36.2143V25.5C28.5714 23.5276 30.1704 21.9286 32.1429 21.9286ZM21.4286 25.5C21.4286 23.5276 19.8296 21.9286 17.8571 21.9286C15.8847 21.9286 14.2857 23.5276 14.2857 25.5V36.2143C14.2857 38.1868 15.8847 39.7857 17.8571 39.7857C19.8296 39.7857 21.4286 38.1868 21.4286 36.2143V25.5Z" fill="white"/>
</svg>
