<svg width="169" height="35" viewBox="0 0 169 35" fill="none" xmlns="http://www.w3.org/2000/svg">
<g clip-path="url(#clip0_8_656)">
<path d="M57.4694 13.9246C58.1321 12.722 58.9254 11.8367 59.8516 11.2635C60.7804 10.6878 61.8705 10.3987 63.1191 10.3987C64.8105 10.3987 66.1103 10.9974 67.0212 12.1872C67.9398 13.3745 68.4004 15.0658 68.4004 17.2561V27.0894H65.7214V17.3406C65.7214 15.7823 65.445 14.6257 64.8949 13.8658C64.3473 13.111 63.5106 12.7297 62.3848 12.7297C61.0056 12.7297 59.9156 13.1928 59.1173 14.1114C58.3164 15.0326 57.9172 16.2915 57.9172 17.883V27.0894H55.2484V17.3406C55.2484 15.772 54.9721 14.6104 54.4194 13.8581C53.8744 13.1084 53.0274 12.7297 51.8786 12.7297C50.5199 12.7297 49.4401 13.1954 48.6443 14.1217C47.8434 15.0479 47.4443 16.3043 47.4443 17.883V27.0894H44.7653V10.7978H47.4443V13.3233C48.0507 12.3305 48.7774 11.5936 49.6218 11.1202C50.4713 10.6418 51.482 10.3987 52.6462 10.3987C53.8155 10.3987 54.8135 10.7032 55.6374 11.307C56.4638 11.9058 57.0754 12.7783 57.4694 13.9246Z" fill="#0E72AE"/>
<path d="M84.8454 17.8575V19.1625H72.6223C72.7349 21.0048 73.2825 22.407 74.2701 23.3742C75.2604 24.3414 76.637 24.8224 78.4 24.8224C79.4234 24.8224 80.4137 24.6996 81.3732 24.4514C82.3302 24.1955 83.282 23.8194 84.2288 23.3153V25.8408C83.2692 26.2476 82.2892 26.5598 81.2888 26.7722C80.2857 26.9871 79.2699 27.0946 78.2387 27.0946C75.6595 27.0946 73.6151 26.3397 72.108 24.8224C70.5983 23.3102 69.8435 21.2632 69.8435 18.6865C69.8435 16.0203 70.5574 13.9042 71.9877 12.3383C73.4181 10.7672 75.3499 9.98169 77.7833 9.98169C79.9557 9.98169 81.6777 10.6905 82.9443 12.1003C84.2109 13.5153 84.8454 15.4318 84.8454 17.8575ZM82.1843 17.0669C82.1664 15.6058 81.7621 14.439 80.9664 13.5665C80.1732 12.6914 79.119 12.2539 77.8089 12.2539C76.3248 12.2539 75.1401 12.6786 74.2445 13.5256C73.3541 14.3674 72.8424 15.5546 72.7067 17.0848L82.1843 17.0669Z" fill="#0E72AE"/>
<path d="M96.8383 13.2977C96.5389 13.1237 96.2139 12.9984 95.8583 12.9165C95.5077 12.832 95.1188 12.7885 94.6915 12.7885C93.1895 12.7885 92.0329 13.2824 91.2295 14.2649C90.4286 15.2475 90.0294 16.6599 90.0294 18.5022V27.0894H87.353V10.7978H90.0294V13.3233C90.5873 12.3357 91.3139 11.6013 92.2095 11.1202C93.1051 10.6418 94.1951 10.3987 95.477 10.3987C95.6587 10.3987 95.8583 10.414 96.0783 10.4422C96.3009 10.4652 96.5517 10.501 96.8204 10.5522L96.8383 13.2977Z" fill="#0E72AE"/>
<path d="M109.931 11.0077V13.5076C109.182 13.0906 108.429 12.7784 107.669 12.5686C106.912 12.3588 106.15 12.2539 105.379 12.2539C103.657 12.2539 102.317 12.804 101.36 13.9068C100.408 15.0096 99.9318 16.5551 99.9318 18.5433C99.9318 20.5263 100.408 22.0692 101.36 23.1695C102.317 24.2723 103.657 24.8224 105.379 24.8224C106.15 24.8224 106.912 24.7201 107.669 24.5102C108.429 24.303 109.182 23.9883 109.931 23.5686V26.0429C109.189 26.396 108.419 26.6596 107.626 26.831C106.833 27.005 105.988 27.0946 105.093 27.0946C102.654 27.0946 100.717 26.3244 99.2819 24.7815C97.8464 23.2385 97.1274 21.1608 97.1274 18.5433C97.1274 15.8822 97.849 13.7917 99.2972 12.2718C100.751 10.7442 102.739 9.98169 105.269 9.98169C106.086 9.98169 106.884 10.0661 107.659 10.2376C108.442 10.4064 109.2 10.6649 109.931 11.0077Z" fill="#0E72AE"/>
<path d="M119.788 18.4844C117.641 18.4844 116.152 18.7326 115.318 19.229C114.491 19.7203 114.077 20.5647 114.077 21.7545C114.077 22.7038 114.386 23.4586 115.005 24.019C115.632 24.5742 116.477 24.848 117.549 24.848C119.023 24.848 120.205 24.3235 121.095 23.2718C121.986 22.2202 122.431 20.8231 122.431 19.078V18.4844H119.788ZM125.092 17.3739V26.6724H122.431V24.1955C121.822 25.1858 121.064 25.9176 120.159 26.3909C119.255 26.8592 118.15 27.0946 116.84 27.0946C115.184 27.0946 113.867 26.6289 112.887 25.6975C111.907 24.761 111.415 23.5021 111.415 21.9259C111.415 20.0939 112.024 18.7172 113.24 17.7884C114.46 16.857 116.285 16.3888 118.705 16.3888H122.431V16.1278C122.431 14.897 122.027 13.9452 121.223 13.2697C120.417 12.5916 119.289 12.2539 117.835 12.2539C116.912 12.2539 116.011 12.369 115.133 12.5916C114.253 12.8142 113.411 13.1469 112.608 13.5921V11.1178C113.58 10.7416 114.524 10.4576 115.438 10.2708C116.354 10.0789 117.247 9.98169 118.114 9.98169C120.45 9.98169 122.195 10.5958 123.352 11.8214C124.511 13.0419 125.092 14.8945 125.092 17.3739Z" fill="#0E72AE"/>
<path d="M133.116 5.75208V10.3808H138.589V12.456H133.116V21.3067C133.116 22.6347 133.298 23.4893 133.659 23.8654C134.017 24.2441 134.751 24.4335 135.862 24.4335H138.589V26.6724H135.862C133.804 26.6724 132.387 26.2886 131.607 25.5184C130.829 24.7456 130.44 23.3409 130.44 21.3067V12.456H128.487V10.3808H130.44V5.75208H133.116Z" fill="#0E72AE"/>
<path d="M148.269 12.2539C146.844 12.2539 145.715 12.8168 144.884 13.9401C144.055 15.0582 143.64 16.5935 143.64 18.5433C143.64 20.493 144.05 22.0257 144.874 23.1464C145.703 24.2646 146.834 24.8224 148.269 24.8224C149.681 24.8224 150.805 24.262 151.631 23.1362C152.463 22.0129 152.882 20.4828 152.882 18.5433C152.882 16.6114 152.463 15.0813 151.631 13.9477C150.805 12.8193 149.681 12.2539 148.269 12.2539ZM148.269 9.98169C150.577 9.98169 152.391 10.7416 153.709 12.2539C155.032 13.7686 155.695 15.8642 155.695 18.5433C155.695 21.2095 155.032 23.3051 153.709 24.8224C152.391 26.3397 150.577 27.0946 148.269 27.0946C145.943 27.0946 144.124 26.3397 142.806 24.8224C141.491 23.3051 140.836 21.2095 140.836 18.5433C140.836 15.8642 141.491 13.7686 142.806 12.2539C144.124 10.7416 145.943 9.98169 148.269 9.98169Z" fill="#0E72AE"/>
<path d="M168.483 13.2977C168.184 13.1237 167.859 12.9984 167.503 12.9165C167.153 12.832 166.766 12.7885 166.339 12.7885C164.834 12.7885 163.68 13.2824 162.877 14.2649C162.076 15.2475 161.677 16.6599 161.677 18.5022V27.0894H158.998V10.7978H161.677V13.3233C162.235 12.3357 162.961 11.6013 163.854 11.1202C164.75 10.6418 165.84 10.3987 167.124 10.3987C167.304 10.3987 167.503 10.414 167.723 10.4422C167.948 10.4652 168.197 10.501 168.468 10.5522L168.483 13.2977Z" fill="#0E72AE"/>
<path d="M7.07749 34.7785H1.25378V5.43738H8.89164L16.2122 12.7144L23.4381 5.43738L27.9338 9.96636L16.2122 21.7673L7.61227 13.1136V34.7785H7.07749Z" fill="#0E72AE"/>
<path d="M33.7038 27.0895H27.8801V20.8948L16.2097 32.642L8.89166 25.2753C8.89422 22.2714 8.89166 19.2265 8.89166 16.2199L16.3351 23.7145L32.5601 7.12871L34.2411 5.43738V27.0895H33.7038Z" fill="#26A8E2"/>
<path fill-rule="evenodd" clip-rule="evenodd" d="M33.7038 34.7784H27.8801V28.3739H34.2411V34.7784H33.7038Z" fill="#FCB410"/>
<path fill-rule="evenodd" clip-rule="evenodd" d="M32.9567 4.91023L28.8396 9.0554L24.3414 4.52898L28.8396 0L33.3354 4.52898L32.9567 4.91023Z" fill="#FCB410"/>
</g>
<defs>
<clipPath id="clip0_8_656">
<rect width="169" height="34.7171" fill="white"/>
</clipPath>
</defs>
</svg>
