<svg width="51" height="51" viewBox="0 0 51 51" fill="none" xmlns="http://www.w3.org/2000/svg">
<path d="M46.3333 31.75C46.3333 39.8125 39.8125 46.3333 31.75 46.3333L33.9375 42.6875" stroke="white" stroke-width="3.875" stroke-linecap="round" stroke-linejoin="round"/>
<path d="M4.66667 19.2501C4.66667 11.1876 11.1875 4.66675 19.25 4.66675L17.0625 8.31258" stroke="white" stroke-width="3.875" stroke-linecap="round" stroke-linejoin="round"/>
<path d="M46.3333 9.25008V9.47925C46.3333 10.0626 45.875 10.5209 45.2917 10.5209H26.5417C25.9583 10.5209 25.5 10.0626 25.5 9.47925V9.25008C25.5 5.58341 26.4167 4.66675 30.125 4.66675H41.7083C45.4167 4.66675 46.3333 5.58341 46.3333 9.25008Z" fill="white"/>
<path d="M26.5417 12.6013C25.9583 12.6013 25.5 13.0597 25.5 13.643V15.7263V17.7888C25.5 21.4555 26.4167 22.3722 30.125 22.3722H41.7083C45.4167 22.3722 46.3333 21.4555 46.3333 17.7888V15.7263V13.643C46.3333 13.0597 45.875 12.6013 45.2917 12.6013H26.5417Z" fill="white"/>
<path d="M25.5 33.2083V33.4375C25.5 34.0208 25.0417 34.4792 24.4583 34.4792H5.70834C5.12501 34.4792 4.66667 34.0208 4.66667 33.4375V33.2083C4.66667 29.5417 5.58334 28.625 9.29167 28.625H20.875C24.5833 28.625 25.5 29.5417 25.5 33.2083Z" fill="white"/>
<path d="M5.70834 36.5596C5.12501 36.5596 4.66667 37.0179 4.66667 37.6012V39.6846V41.7471C4.66667 45.4137 5.58334 46.3304 9.29167 46.3304H20.875C24.5833 46.3304 25.5 45.4137 25.5 41.7471V39.6846V37.6012C25.5 37.0179 25.0417 36.5596 24.4583 36.5596H5.70834Z" fill="white"/>
</svg>
