<svg width="61" height="51" viewBox="0 0 61 51" fill="none" xmlns="http://www.w3.org/2000/svg">
<g clip-path="url(#clip0_157_798)">
<path d="M0.5 23.7748H3.2312V49.8123H15.0428V18.5466H5.492L0.5 23.7748ZM11.1056 31.3716H13.526V34.5294H11.1056V31.3716ZM11.1056 36.8951H13.526V40.0498H11.1056V36.8951ZM6.8672 31.3716H9.2888V34.5294H6.8672V31.3716ZM6.8672 36.8951H9.2888V40.0498H6.8672V36.8951Z" fill="white"/>
<path d="M55.508 18.5466H45.9572V49.8123H57.7699V23.7748H60.5L55.508 18.5466ZM49.8944 40.0498H47.4728V36.8951H49.8944V40.0498ZM49.8944 34.5279H47.4728V31.3701H49.8944V34.5279ZM54.1316 40.0498H51.71V36.8951H54.1316V40.0498ZM54.1316 34.5279H51.71V31.3701H54.1316V34.5279Z" fill="white"/>
<path d="M44.138 9.07173H38.4236V4.19048C39.1244 4.99048 39.8252 3.17017 40.526 5.12954C40.526 4.36079 40.526 3.59048 40.526 2.81548C39.8252 0.857666 39.1244 2.68423 38.4236 1.88267V1.18579H38.0492V3.49517V9.07173H20.8472V4.19048C21.5492 4.99048 22.25 3.17017 22.9508 5.12954C22.9508 4.36079 22.9508 3.59048 22.9508 2.81548C22.25 0.857666 21.5492 2.68423 20.8472 1.88267V1.18579H20.4728V3.49517V9.07173H16.8608L14.1368 14.2999H16.8608V49.8124H27.164V39.1624H33.8348V49.8124H44.138V14.3014H46.862L44.138 9.07173ZM22.9256 28.6045H20.4968V25.4499H22.9256V28.6045ZM22.9256 23.0874H20.4968V19.9295H22.9256V23.0874ZM27.1652 28.6045H24.7436V25.4499H27.1652V28.6045ZM27.1652 23.0874H24.7436V19.9295H27.1652V23.0874ZM36.2564 28.6045H33.8348V25.4499H36.2564V28.6045ZM36.2564 23.0874H33.8348V19.9295H36.2564V23.0874ZM40.5032 28.6045H38.0756V25.4499H40.5032V28.6045ZM40.5032 23.0874H38.0756V19.9295H40.5032V23.0874Z" fill="white"/>
</g>
<defs>
<clipPath id="clip0_157_798">
<rect width="60" height="50" fill="white" transform="translate(0.5 0.5)"/>
</clipPath>
</defs>
</svg>
