<svg width="51" height="51" viewBox="0 0 51 51" fill="none" xmlns="http://www.w3.org/2000/svg">
<path d="M25.4258 0.446575C11.7353 0.496178 0.648988 11.6321 0.698591 25.3227C0.748194 39.0132 11.8841 50.0995 25.5747 50.0499C39.2651 50.0003 50.3514 38.8644 50.3018 25.1739C50.2522 11.4833 39.1163 0.421773 25.4258 0.446575ZM31.1054 25.4963C33.0399 26.1659 35.6441 27.6044 35.6441 32.0439C35.6441 35.8634 32.6431 38.9388 28.9725 38.9388H27.3604V40.3773C27.3604 41.3941 26.5171 42.2374 25.5003 42.2374C24.4834 42.2374 23.6401 41.3941 23.6401 40.3773V38.9388H22.7473C18.6797 38.9388 15.3811 35.5161 15.3811 31.2999C15.3811 30.283 16.2244 29.4398 17.2412 29.4398C18.2581 29.4398 19.1014 30.283 19.1014 31.2999C19.1014 33.4576 20.7383 35.2185 22.7473 35.2185H23.6401V26.8356L19.895 25.4963C17.9605 24.8267 15.3563 23.3882 15.3563 18.9486C15.3563 15.1291 18.3573 12.0537 22.028 12.0537H23.6401V10.6152C23.6401 9.59836 24.4834 8.75511 25.5003 8.75511C26.5171 8.75511 27.3604 9.59836 27.3604 10.6152V12.0537H28.2532C32.3207 12.0537 35.6193 15.4763 35.6193 19.6926C35.6193 20.7096 34.776 21.5528 33.7592 21.5528C32.7423 21.5528 31.8991 20.7096 31.8991 19.6926C31.8991 17.5349 30.2622 15.774 28.2532 15.774H27.3604V24.157L31.1054 25.4963Z" fill="white"/>
</svg>
